<mxfile host="app.diagrams.net" modified="2020-09-02T03:47:49.806Z" agent="5.0 (Macintosh; Intel Mac OS X 10_15_5) AppleWebKit/537.36 (KHTML, like Gecko) Chrome/83.0.4103.106 Safari/537.36" etag="BX8Dg4cl8akbfpZBVt2D" version="13.6.5" type="github">
  <diagram id="uF0h7V6TEaOjpsupt_MZ" name="Page-1">
    <mxGraphModel dx="1186" dy="1933" grid="1" gridSize="10" guides="1" tooltips="1" connect="1" arrows="1" fold="1" page="1" pageScale="1" pageWidth="827" pageHeight="1169" math="0" shadow="0">
      <root>
        <mxCell id="0" />
        <mxCell id="1" parent="0" />
        <mxCell id="mCOzEYWyYx__xWxfCX5C-2" value="" style="rounded=1;whiteSpace=wrap;html=1;" vertex="1" parent="1">
          <mxGeometry x="60" y="200" width="510" height="170" as="geometry" />
        </mxCell>
        <mxCell id="mCOzEYWyYx__xWxfCX5C-8" value="" style="edgeStyle=orthogonalEdgeStyle;rounded=0;orthogonalLoop=1;jettySize=auto;html=1;" edge="1" parent="1" source="mCOzEYWyYx__xWxfCX5C-5" target="mCOzEYWyYx__xWxfCX5C-7">
          <mxGeometry relative="1" as="geometry" />
        </mxCell>
        <mxCell id="mCOzEYWyYx__xWxfCX5C-5" value="" style="rhombus;whiteSpace=wrap;html=1;" vertex="1" parent="1">
          <mxGeometry x="70" y="280" width="60" height="60" as="geometry" />
        </mxCell>
        <mxCell id="mCOzEYWyYx__xWxfCX5C-10" value="" style="edgeStyle=orthogonalEdgeStyle;rounded=0;orthogonalLoop=1;jettySize=auto;html=1;" edge="1" parent="1" source="mCOzEYWyYx__xWxfCX5C-7" target="mCOzEYWyYx__xWxfCX5C-9">
          <mxGeometry relative="1" as="geometry" />
        </mxCell>
        <mxCell id="mCOzEYWyYx__xWxfCX5C-7" value="" style="rhombus;whiteSpace=wrap;html=1;" vertex="1" parent="1">
          <mxGeometry x="210" y="280" width="60" height="60" as="geometry" />
        </mxCell>
        <mxCell id="mCOzEYWyYx__xWxfCX5C-72" value="" style="edgeStyle=orthogonalEdgeStyle;rounded=0;orthogonalLoop=1;jettySize=auto;html=1;" edge="1" parent="1" source="mCOzEYWyYx__xWxfCX5C-9" target="mCOzEYWyYx__xWxfCX5C-11">
          <mxGeometry relative="1" as="geometry" />
        </mxCell>
        <mxCell id="mCOzEYWyYx__xWxfCX5C-9" value="" style="rhombus;whiteSpace=wrap;html=1;" vertex="1" parent="1">
          <mxGeometry x="350" y="280" width="60" height="60" as="geometry" />
        </mxCell>
        <mxCell id="mCOzEYWyYx__xWxfCX5C-11" value="" style="rhombus;whiteSpace=wrap;html=1;" vertex="1" parent="1">
          <mxGeometry x="490" y="280" width="60" height="60" as="geometry" />
        </mxCell>
        <mxCell id="mCOzEYWyYx__xWxfCX5C-73" value="" style="edgeStyle=orthogonalEdgeStyle;rounded=0;orthogonalLoop=1;jettySize=auto;html=1;" edge="1" parent="1" source="mCOzEYWyYx__xWxfCX5C-13" target="mCOzEYWyYx__xWxfCX5C-14">
          <mxGeometry relative="1" as="geometry" />
        </mxCell>
        <mxCell id="mCOzEYWyYx__xWxfCX5C-13" value="" style="rhombus;whiteSpace=wrap;html=1;fillColor=#f8cecc;strokeColor=#b85450;" vertex="1" parent="1">
          <mxGeometry x="490" y="210" width="60" height="60" as="geometry" />
        </mxCell>
        <mxCell id="mCOzEYWyYx__xWxfCX5C-17" value="" style="edgeStyle=orthogonalEdgeStyle;rounded=0;orthogonalLoop=1;jettySize=auto;html=1;" edge="1" parent="1" source="mCOzEYWyYx__xWxfCX5C-14" target="mCOzEYWyYx__xWxfCX5C-16">
          <mxGeometry relative="1" as="geometry" />
        </mxCell>
        <mxCell id="mCOzEYWyYx__xWxfCX5C-14" value="" style="rhombus;whiteSpace=wrap;html=1;fillColor=#f8cecc;strokeColor=#b85450;" vertex="1" parent="1">
          <mxGeometry x="350" y="210" width="60" height="60" as="geometry" />
        </mxCell>
        <mxCell id="mCOzEYWyYx__xWxfCX5C-19" value="" style="edgeStyle=orthogonalEdgeStyle;rounded=0;orthogonalLoop=1;jettySize=auto;html=1;" edge="1" parent="1" source="mCOzEYWyYx__xWxfCX5C-16" target="mCOzEYWyYx__xWxfCX5C-18">
          <mxGeometry relative="1" as="geometry" />
        </mxCell>
        <mxCell id="mCOzEYWyYx__xWxfCX5C-16" value="" style="rhombus;whiteSpace=wrap;html=1;fillColor=#f8cecc;strokeColor=#b85450;" vertex="1" parent="1">
          <mxGeometry x="210" y="210" width="60" height="60" as="geometry" />
        </mxCell>
        <mxCell id="mCOzEYWyYx__xWxfCX5C-18" value="" style="rhombus;whiteSpace=wrap;html=1;fillColor=#f8cecc;strokeColor=#b85450;" vertex="1" parent="1">
          <mxGeometry x="70" y="210" width="60" height="60" as="geometry" />
        </mxCell>
        <mxCell id="mCOzEYWyYx__xWxfCX5C-20" value="Embedding Layer" style="rounded=1;whiteSpace=wrap;html=1;" vertex="1" parent="1">
          <mxGeometry x="60" y="420" width="510" height="60" as="geometry" />
        </mxCell>
        <mxCell id="mCOzEYWyYx__xWxfCX5C-24" value="" style="edgeStyle=orthogonalEdgeStyle;rounded=0;orthogonalLoop=1;jettySize=auto;html=1;" edge="1" parent="1" source="mCOzEYWyYx__xWxfCX5C-21" target="mCOzEYWyYx__xWxfCX5C-20">
          <mxGeometry relative="1" as="geometry" />
        </mxCell>
        <mxCell id="mCOzEYWyYx__xWxfCX5C-21" value="BERT last four layer average" style="rounded=0;whiteSpace=wrap;html=1;" vertex="1" parent="1">
          <mxGeometry x="60" y="510" width="510" height="60" as="geometry" />
        </mxCell>
        <mxCell id="mCOzEYWyYx__xWxfCX5C-25" value="" style="endArrow=classic;html=1;entryX=0.5;entryY=1;entryDx=0;entryDy=0;exitX=0.075;exitY=0;exitDx=0;exitDy=0;exitPerimeter=0;" edge="1" parent="1" source="mCOzEYWyYx__xWxfCX5C-20" target="mCOzEYWyYx__xWxfCX5C-5">
          <mxGeometry width="50" height="50" relative="1" as="geometry">
            <mxPoint x="110" y="420" as="sourcePoint" />
            <mxPoint x="160" y="370" as="targetPoint" />
            <Array as="points" />
          </mxGeometry>
        </mxCell>
        <mxCell id="mCOzEYWyYx__xWxfCX5C-30" value="" style="curved=1;endArrow=classic;html=1;entryX=0.5;entryY=1;entryDx=0;entryDy=0;fillColor=#f8cecc;strokeColor=#b85450;" edge="1" parent="1" target="mCOzEYWyYx__xWxfCX5C-18">
          <mxGeometry width="50" height="50" relative="1" as="geometry">
            <mxPoint x="100" y="420" as="sourcePoint" />
            <mxPoint x="120" y="370" as="targetPoint" />
            <Array as="points">
              <mxPoint x="130" y="330" />
            </Array>
          </mxGeometry>
        </mxCell>
        <mxCell id="mCOzEYWyYx__xWxfCX5C-31" value="" style="endArrow=classic;html=1;entryX=0.5;entryY=1;entryDx=0;entryDy=0;" edge="1" parent="1" target="mCOzEYWyYx__xWxfCX5C-7">
          <mxGeometry width="50" height="50" relative="1" as="geometry">
            <mxPoint x="240" y="420" as="sourcePoint" />
            <mxPoint x="260" y="370" as="targetPoint" />
          </mxGeometry>
        </mxCell>
        <mxCell id="mCOzEYWyYx__xWxfCX5C-32" value="" style="endArrow=classic;html=1;entryX=0.5;entryY=1;entryDx=0;entryDy=0;" edge="1" parent="1" target="mCOzEYWyYx__xWxfCX5C-9">
          <mxGeometry width="50" height="50" relative="1" as="geometry">
            <mxPoint x="380" y="420" as="sourcePoint" />
            <mxPoint x="400" y="370" as="targetPoint" />
          </mxGeometry>
        </mxCell>
        <mxCell id="mCOzEYWyYx__xWxfCX5C-33" value="" style="endArrow=classic;html=1;entryX=0.5;entryY=1;entryDx=0;entryDy=0;exitX=0.902;exitY=0;exitDx=0;exitDy=0;exitPerimeter=0;" edge="1" parent="1" source="mCOzEYWyYx__xWxfCX5C-20" target="mCOzEYWyYx__xWxfCX5C-11">
          <mxGeometry width="50" height="50" relative="1" as="geometry">
            <mxPoint x="520" y="400" as="sourcePoint" />
            <mxPoint x="550" y="370" as="targetPoint" />
          </mxGeometry>
        </mxCell>
        <mxCell id="mCOzEYWyYx__xWxfCX5C-34" value="" style="curved=1;endArrow=classic;html=1;entryX=0.5;entryY=1;entryDx=0;entryDy=0;fillColor=#f8cecc;strokeColor=#b85450;" edge="1" parent="1" target="mCOzEYWyYx__xWxfCX5C-16">
          <mxGeometry width="50" height="50" relative="1" as="geometry">
            <mxPoint x="240" y="420" as="sourcePoint" />
            <mxPoint x="260" y="370" as="targetPoint" />
            <Array as="points">
              <mxPoint x="270" y="370" />
            </Array>
          </mxGeometry>
        </mxCell>
        <mxCell id="mCOzEYWyYx__xWxfCX5C-35" value="" style="curved=1;endArrow=classic;html=1;entryX=0.5;entryY=1;entryDx=0;entryDy=0;fillColor=#f8cecc;strokeColor=#b85450;" edge="1" parent="1" target="mCOzEYWyYx__xWxfCX5C-14">
          <mxGeometry width="50" height="50" relative="1" as="geometry">
            <mxPoint x="380" y="420" as="sourcePoint" />
            <mxPoint x="410" y="370" as="targetPoint" />
            <Array as="points">
              <mxPoint x="410" y="360" />
            </Array>
          </mxGeometry>
        </mxCell>
        <mxCell id="mCOzEYWyYx__xWxfCX5C-36" value="" style="curved=1;endArrow=classic;html=1;entryX=0.5;entryY=1;entryDx=0;entryDy=0;fillColor=#f8cecc;strokeColor=#b85450;" edge="1" parent="1" target="mCOzEYWyYx__xWxfCX5C-13">
          <mxGeometry width="50" height="50" relative="1" as="geometry">
            <mxPoint x="520" y="420" as="sourcePoint" />
            <mxPoint x="550" y="370" as="targetPoint" />
            <Array as="points">
              <mxPoint x="550" y="340" />
            </Array>
          </mxGeometry>
        </mxCell>
        <mxCell id="mCOzEYWyYx__xWxfCX5C-39" value="" style="edgeStyle=orthogonalEdgeStyle;rounded=0;orthogonalLoop=1;jettySize=auto;html=1;" edge="1" parent="1" source="mCOzEYWyYx__xWxfCX5C-38" target="mCOzEYWyYx__xWxfCX5C-21">
          <mxGeometry relative="1" as="geometry" />
        </mxCell>
        <mxCell id="mCOzEYWyYx__xWxfCX5C-38" value="Washed Text" style="text;html=1;strokeColor=none;fillColor=none;align=center;verticalAlign=middle;whiteSpace=wrap;rounded=0;" vertex="1" parent="1">
          <mxGeometry x="227.5" y="600" width="175" height="50" as="geometry" />
        </mxCell>
        <mxCell id="mCOzEYWyYx__xWxfCX5C-40" value="Spacy &amp;amp; SWN" style="rounded=0;whiteSpace=wrap;html=1;" vertex="1" parent="1">
          <mxGeometry x="730" y="420" width="120" height="60" as="geometry" />
        </mxCell>
        <mxCell id="mCOzEYWyYx__xWxfCX5C-41" value="" style="endArrow=classic;html=1;entryX=0.5;entryY=1;entryDx=0;entryDy=0;" edge="1" parent="1" target="mCOzEYWyYx__xWxfCX5C-40">
          <mxGeometry width="50" height="50" relative="1" as="geometry">
            <mxPoint x="403" y="625" as="sourcePoint" />
            <mxPoint x="640" y="560" as="targetPoint" />
            <Array as="points">
              <mxPoint x="790" y="625" />
            </Array>
          </mxGeometry>
        </mxCell>
        <mxCell id="mCOzEYWyYx__xWxfCX5C-43" value="" style="ellipse;whiteSpace=wrap;html=1;aspect=fixed;fillColor=#FF0000;" vertex="1" parent="1">
          <mxGeometry x="710" y="230" width="20" height="20" as="geometry" />
        </mxCell>
        <mxCell id="mCOzEYWyYx__xWxfCX5C-44" value="" style="ellipse;whiteSpace=wrap;html=1;aspect=fixed;fillColor=#0000FF;" vertex="1" parent="1">
          <mxGeometry x="850" y="230" width="20" height="20" as="geometry" />
        </mxCell>
        <mxCell id="mCOzEYWyYx__xWxfCX5C-45" value="" style="ellipse;whiteSpace=wrap;html=1;aspect=fixed;fillColor=#FFFFFF;" vertex="1" parent="1">
          <mxGeometry x="710" y="340" width="20" height="20" as="geometry" />
        </mxCell>
        <mxCell id="mCOzEYWyYx__xWxfCX5C-46" value="" style="ellipse;whiteSpace=wrap;html=1;aspect=fixed;fillColor=#FFFFFF;" vertex="1" parent="1">
          <mxGeometry x="780" y="280" width="20" height="20" as="geometry" />
        </mxCell>
        <mxCell id="mCOzEYWyYx__xWxfCX5C-47" value="" style="ellipse;whiteSpace=wrap;html=1;aspect=fixed;fillColor=#FFFFFF;" vertex="1" parent="1">
          <mxGeometry x="850" y="340" width="20" height="20" as="geometry" />
        </mxCell>
        <mxCell id="mCOzEYWyYx__xWxfCX5C-50" value="" style="endArrow=none;html=1;exitX=0;exitY=0;exitDx=0;exitDy=0;entryX=1;entryY=1;entryDx=0;entryDy=0;" edge="1" parent="1" source="mCOzEYWyYx__xWxfCX5C-46" target="mCOzEYWyYx__xWxfCX5C-43">
          <mxGeometry width="50" height="50" relative="1" as="geometry">
            <mxPoint x="610" y="300" as="sourcePoint" />
            <mxPoint x="660" y="250" as="targetPoint" />
          </mxGeometry>
        </mxCell>
        <mxCell id="mCOzEYWyYx__xWxfCX5C-51" value="" style="endArrow=none;html=1;entryX=0;entryY=1;entryDx=0;entryDy=0;exitX=1;exitY=0;exitDx=0;exitDy=0;" edge="1" parent="1" source="mCOzEYWyYx__xWxfCX5C-45" target="mCOzEYWyYx__xWxfCX5C-46">
          <mxGeometry width="50" height="50" relative="1" as="geometry">
            <mxPoint x="640" y="330" as="sourcePoint" />
            <mxPoint x="690" y="280" as="targetPoint" />
          </mxGeometry>
        </mxCell>
        <mxCell id="mCOzEYWyYx__xWxfCX5C-53" value="" style="endArrow=none;html=1;exitX=1;exitY=0;exitDx=0;exitDy=0;entryX=0;entryY=1;entryDx=0;entryDy=0;" edge="1" parent="1" source="mCOzEYWyYx__xWxfCX5C-46" target="mCOzEYWyYx__xWxfCX5C-44">
          <mxGeometry width="50" height="50" relative="1" as="geometry">
            <mxPoint x="640" y="320" as="sourcePoint" />
            <mxPoint x="690" y="270" as="targetPoint" />
          </mxGeometry>
        </mxCell>
        <mxCell id="mCOzEYWyYx__xWxfCX5C-54" value="" style="endArrow=none;html=1;entryX=1;entryY=1;entryDx=0;entryDy=0;exitX=0;exitY=0;exitDx=0;exitDy=0;" edge="1" parent="1" source="mCOzEYWyYx__xWxfCX5C-47" target="mCOzEYWyYx__xWxfCX5C-46">
          <mxGeometry width="50" height="50" relative="1" as="geometry">
            <mxPoint x="620" y="330" as="sourcePoint" />
            <mxPoint x="670" y="280" as="targetPoint" />
          </mxGeometry>
        </mxCell>
        <mxCell id="mCOzEYWyYx__xWxfCX5C-55" value="BLSTM" style="text;html=1;strokeColor=none;fillColor=none;align=center;verticalAlign=middle;whiteSpace=wrap;rounded=0;" vertex="1" parent="1">
          <mxGeometry x="10" y="265" width="40" height="50" as="geometry" />
        </mxCell>
        <mxCell id="mCOzEYWyYx__xWxfCX5C-56" value="" style="endArrow=classic;html=1;exitX=0.5;exitY=0;exitDx=0;exitDy=0;" edge="1" parent="1" source="mCOzEYWyYx__xWxfCX5C-40">
          <mxGeometry width="50" height="50" relative="1" as="geometry">
            <mxPoint x="650" y="460" as="sourcePoint" />
            <mxPoint x="790" y="360" as="targetPoint" />
          </mxGeometry>
        </mxCell>
        <mxCell id="mCOzEYWyYx__xWxfCX5C-57" value="2-layers GAT" style="text;html=1;strokeColor=none;fillColor=none;align=center;verticalAlign=middle;whiteSpace=wrap;rounded=0;" vertex="1" parent="1">
          <mxGeometry x="920" y="257.5" width="100" height="65" as="geometry" />
        </mxCell>
        <mxCell id="mCOzEYWyYx__xWxfCX5C-58" value="" style="endArrow=classic;html=1;" edge="1" parent="1">
          <mxGeometry width="50" height="50" relative="1" as="geometry">
            <mxPoint x="590" y="280" as="sourcePoint" />
            <mxPoint x="680" y="280" as="targetPoint" />
            <Array as="points">
              <mxPoint x="660" y="280" />
            </Array>
          </mxGeometry>
        </mxCell>
        <mxCell id="mCOzEYWyYx__xWxfCX5C-59" value="copy hidden state" style="text;html=1;strokeColor=none;fillColor=none;align=center;verticalAlign=middle;whiteSpace=wrap;rounded=0;" vertex="1" parent="1">
          <mxGeometry x="610" y="220" width="50" height="45" as="geometry" />
        </mxCell>
        <mxCell id="mCOzEYWyYx__xWxfCX5C-61" value="" style="endArrow=none;dashed=1;html=1;dashPattern=1 3;strokeWidth=2;" edge="1" parent="1">
          <mxGeometry width="50" height="50" relative="1" as="geometry">
            <mxPoint x="70" y="160" as="sourcePoint" />
            <mxPoint x="570" y="160" as="targetPoint" />
          </mxGeometry>
        </mxCell>
        <mxCell id="mCOzEYWyYx__xWxfCX5C-62" value="" style="endArrow=classic;html=1;exitX=0.08;exitY=0;exitDx=0;exitDy=0;exitPerimeter=0;" edge="1" parent="1" source="mCOzEYWyYx__xWxfCX5C-2">
          <mxGeometry width="50" height="50" relative="1" as="geometry">
            <mxPoint x="100" y="190" as="sourcePoint" />
            <mxPoint x="101" y="160" as="targetPoint" />
          </mxGeometry>
        </mxCell>
        <mxCell id="mCOzEYWyYx__xWxfCX5C-63" value="" style="endArrow=classic;html=1;exitX=0.353;exitY=0;exitDx=0;exitDy=0;exitPerimeter=0;" edge="1" parent="1" source="mCOzEYWyYx__xWxfCX5C-2">
          <mxGeometry width="50" height="50" relative="1" as="geometry">
            <mxPoint x="220" y="210" as="sourcePoint" />
            <mxPoint x="240" y="160" as="targetPoint" />
          </mxGeometry>
        </mxCell>
        <mxCell id="mCOzEYWyYx__xWxfCX5C-64" value="" style="endArrow=classic;html=1;exitX=0.629;exitY=0;exitDx=0;exitDy=0;exitPerimeter=0;" edge="1" parent="1" source="mCOzEYWyYx__xWxfCX5C-2">
          <mxGeometry width="50" height="50" relative="1" as="geometry">
            <mxPoint x="360" y="200" as="sourcePoint" />
            <mxPoint x="381" y="160" as="targetPoint" />
          </mxGeometry>
        </mxCell>
        <mxCell id="mCOzEYWyYx__xWxfCX5C-65" value="" style="endArrow=classic;html=1;" edge="1" parent="1">
          <mxGeometry width="50" height="50" relative="1" as="geometry">
            <mxPoint x="520" y="200" as="sourcePoint" />
            <mxPoint x="520" y="160" as="targetPoint" />
          </mxGeometry>
        </mxCell>
        <mxCell id="mCOzEYWyYx__xWxfCX5C-74" value="" style="rounded=0;whiteSpace=wrap;html=1;fillColor=#dae8fc;strokeColor=#6c8ebf;" vertex="1" parent="1">
          <mxGeometry x="90" y="130" width="20" height="30" as="geometry" />
        </mxCell>
        <mxCell id="mCOzEYWyYx__xWxfCX5C-75" value="" style="rounded=0;whiteSpace=wrap;html=1;fillColor=#dae8fc;strokeColor=#6c8ebf;" vertex="1" parent="1">
          <mxGeometry x="230" y="80" width="20" height="80" as="geometry" />
        </mxCell>
        <mxCell id="mCOzEYWyYx__xWxfCX5C-76" value="" style="rounded=0;whiteSpace=wrap;html=1;fillColor=#dae8fc;strokeColor=#6c8ebf;" vertex="1" parent="1">
          <mxGeometry x="370" y="140" width="20" height="20" as="geometry" />
        </mxCell>
        <mxCell id="mCOzEYWyYx__xWxfCX5C-77" value="" style="rounded=0;whiteSpace=wrap;html=1;fillColor=#dae8fc;strokeColor=#6c8ebf;" vertex="1" parent="1">
          <mxGeometry x="510" y="50" width="20" height="110" as="geometry" />
        </mxCell>
        <mxCell id="mCOzEYWyYx__xWxfCX5C-78" value="" style="endArrow=classic;html=1;exitX=0.5;exitY=0;exitDx=0;exitDy=0;" edge="1" parent="1" source="mCOzEYWyYx__xWxfCX5C-43">
          <mxGeometry width="50" height="50" relative="1" as="geometry">
            <mxPoint x="720" y="220" as="sourcePoint" />
            <mxPoint x="600" y="120" as="targetPoint" />
            <Array as="points">
              <mxPoint x="720" y="120" />
            </Array>
          </mxGeometry>
        </mxCell>
        <mxCell id="mCOzEYWyYx__xWxfCX5C-79" value="" style="endArrow=classic;html=1;exitX=0.5;exitY=0;exitDx=0;exitDy=0;" edge="1" parent="1" source="mCOzEYWyYx__xWxfCX5C-44">
          <mxGeometry width="50" height="50" relative="1" as="geometry">
            <mxPoint x="900" y="150" as="sourcePoint" />
            <mxPoint x="600" y="80" as="targetPoint" />
            <Array as="points">
              <mxPoint x="860" y="80" />
            </Array>
          </mxGeometry>
        </mxCell>
        <mxCell id="mCOzEYWyYx__xWxfCX5C-80" value="Dense" style="rounded=0;whiteSpace=wrap;html=1;fillColor=#FFFFFF;" vertex="1" parent="1">
          <mxGeometry x="220" y="-30" width="190" height="40" as="geometry" />
        </mxCell>
        <mxCell id="mCOzEYWyYx__xWxfCX5C-83" value="" style="endArrow=none;html=1;exitX=0.5;exitY=0;exitDx=0;exitDy=0;entryX=0.5;entryY=1;entryDx=0;entryDy=0;" edge="1" parent="1" source="mCOzEYWyYx__xWxfCX5C-74" target="mCOzEYWyYx__xWxfCX5C-80">
          <mxGeometry width="50" height="50" relative="1" as="geometry">
            <mxPoint x="60" y="100" as="sourcePoint" />
            <mxPoint x="110" y="50" as="targetPoint" />
          </mxGeometry>
        </mxCell>
        <mxCell id="mCOzEYWyYx__xWxfCX5C-84" value="" style="endArrow=none;html=1;exitX=0.5;exitY=0;exitDx=0;exitDy=0;entryX=0.5;entryY=1;entryDx=0;entryDy=0;" edge="1" parent="1" source="mCOzEYWyYx__xWxfCX5C-75" target="mCOzEYWyYx__xWxfCX5C-80">
          <mxGeometry width="50" height="50" relative="1" as="geometry">
            <mxPoint x="60" y="90" as="sourcePoint" />
            <mxPoint x="110" y="40" as="targetPoint" />
          </mxGeometry>
        </mxCell>
        <mxCell id="mCOzEYWyYx__xWxfCX5C-85" value="" style="endArrow=none;html=1;exitX=0.5;exitY=0;exitDx=0;exitDy=0;entryX=0.5;entryY=1;entryDx=0;entryDy=0;" edge="1" parent="1" source="mCOzEYWyYx__xWxfCX5C-76" target="mCOzEYWyYx__xWxfCX5C-80">
          <mxGeometry width="50" height="50" relative="1" as="geometry">
            <mxPoint x="400" y="110" as="sourcePoint" />
            <mxPoint x="310" y="10" as="targetPoint" />
          </mxGeometry>
        </mxCell>
        <mxCell id="mCOzEYWyYx__xWxfCX5C-86" value="" style="endArrow=none;html=1;exitX=0.5;exitY=0;exitDx=0;exitDy=0;entryX=0.5;entryY=1;entryDx=0;entryDy=0;" edge="1" parent="1" source="mCOzEYWyYx__xWxfCX5C-77" target="mCOzEYWyYx__xWxfCX5C-80">
          <mxGeometry width="50" height="50" relative="1" as="geometry">
            <mxPoint x="500" y="30" as="sourcePoint" />
            <mxPoint x="550" y="-20" as="targetPoint" />
          </mxGeometry>
        </mxCell>
        <mxCell id="mCOzEYWyYx__xWxfCX5C-87" value="&lt;font color=&quot;#ff0000&quot;&gt;positive&lt;/font&gt;" style="text;html=1;strokeColor=none;fillColor=none;align=center;verticalAlign=middle;whiteSpace=wrap;rounded=0;" vertex="1" parent="1">
          <mxGeometry x="740" y="200" width="40" height="20" as="geometry" />
        </mxCell>
        <mxCell id="mCOzEYWyYx__xWxfCX5C-88" value="&lt;font color=&quot;#0000ff&quot;&gt;negative&lt;/font&gt;" style="text;html=1;strokeColor=none;fillColor=none;align=center;verticalAlign=middle;whiteSpace=wrap;rounded=0;" vertex="1" parent="1">
          <mxGeometry x="890" y="200" width="40" height="20" as="geometry" />
        </mxCell>
      </root>
    </mxGraphModel>
  </diagram>
</mxfile>
